<svg xmlns="http://www.w3.org/2000/svg" width="18" height="13" viewBox="0 0 18 13">
    <path fill="#A9A9B8" fill-rule="evenodd" d="M4.96 1.6c-.882 0-1.6.718-1.6 1.6 0 .882.718 1.6 1.6 1.6.882 0 1.6-.718 1.6-1.6 0-.882-.718-1.6-1.6-1.6m0 4.8a3.203 3.203 0 0 1-3.2-3.2c0-1.765 1.435-3.2 3.2-3.2 1.765 0 3.2 1.435 3.2 3.2 0 1.765-1.435 3.2-3.2 3.2zm7.84-4.8c.882 0 1.6.718 1.6 1.6 0 .882-.718 1.6-1.6 1.6-.882 0-1.6-.718-1.6-1.6 0-.882.718-1.6 1.6-1.6zm0 4.8a3.203 3.203 0 0 1-3.2-3.2c0-1.765 1.435-3.2 3.2-3.2C14.565 0 16 1.435 16 3.2c0 1.765-1.435 3.2-3.2 3.2zm-3.98 4.8H1.503v-.534c0-.479.888-1.865 3.61-1.866 2.41 0 3.709.96 3.709 1.866v.534zm-3.672-4c3.61 0 5.252 1.796 5.252 3.466V12.8H0v-2.134C0 9.227 1.597 7.2 5.148 7.2zM18 10.666V12.8h-6.703v-1.6h5.221v-.534c0-.905-1.248-1.866-3.565-1.866-.861 0-1.509.148-1.995.347A4.043 4.043 0 0 0 10 7.861c.69-.366 1.643-.661 2.951-.661C16.421 7.2 18 8.996 18 10.666z"/>
</svg>
