<svg xmlns="http://www.w3.org/2000/svg" width="14" height="16" viewBox="0 0 14 16">
    <path fill="#A9A9B8" fill-rule="evenodd" d="M3.636 12.364h2.91a.727.727 0 1 0 0-1.455h-2.91a.727.727 0 1 0 0 1.455zm8-8H1.455V2.909h10.181v1.455zm0 10.181H1.455V5.818h10.181v8.727zm.728-13.09h-1.455V.727a.727.727 0 1 0-1.454 0v.728H7.273V.727a.727.727 0 1 0-1.455 0v.728H3.636V.727a.727.727 0 1 0-1.454 0v.728H.727A.727.727 0 0 0 0 2.182v13.09c0 .403.326.728.727.728h11.637a.727.727 0 0 0 .727-.727V2.182a.727.727 0 0 0-.727-.727zm-8.728 8h5.819a.727.727 0 1 0 0-1.455H3.636a.727.727 0 1 0 0 1.455z"/>
</svg>
