<svg xmlns="http://www.w3.org/2000/svg" width="14" height="16" viewBox="0 0 14 16">
    <path fill="#A9A9B8" fill-rule="evenodd" d="M11.636 10.91v4.363a.728.728 0 0 0 1.455 0v-4.364a.728.728 0 0 0-1.455 0M9.455 16a.728.728 0 0 0 .727-.727V2.909a.728.728 0 0 0-1.455 0v12.364c0 .401.326.727.728.727m-2.91 0a.728.728 0 0 0 .728-.727V5.818a.728.728 0 0 0-1.455 0v9.455c0 .401.326.727.727.727m-2.909 0a.728.728 0 0 0 .728-.727V.727a.728.728 0 0 0-1.455 0v14.546c0 .401.326.727.727.727M.727 16a.728.728 0 0 0 .728-.727v-8a.728.728 0 0 0-1.455 0v8c0 .401.326.727.727.727"/>
</svg>
